<svg xmlns="http://www.w3.org/2000/svg" viewBox="0 0 256 256" role="img" aria-label="AgroTerry cow logo">
  <defs>
    <linearGradient id="agroGradient" x1="0" x2="1" y1="0" y2="1">
      <stop offset="0%" stop-color="#2f4a32" />
      <stop offset="100%" stop-color="#4f6b4b" />
    </linearGradient>
  </defs>
  <rect x="8" y="8" width="240" height="240" rx="64" fill="#eef4e8" />
  <path d="M72 86c-13 3-24 15-28 29 10 0 20-4 28-11V86z" fill="#b48a63"/>
  <path d="M184 86c13 3 24 15 28 29-10 0-20-4-28-11V86z" fill="#b48a63"/>
  <ellipse cx="128" cy="124" rx="72" ry="62" fill="url(#agroGradient)"/>
  <ellipse cx="128" cy="168" rx="56" ry="42" fill="#f3ecdf"/>
  <ellipse cx="104" cy="168" rx="10" ry="8" fill="#7c5b40"/>
  <ellipse cx="152" cy="168" rx="10" ry="8" fill="#7c5b40"/>
  <circle cx="104" cy="122" r="8" fill="#f3ecdf"/>
  <circle cx="152" cy="122" r="8" fill="#f3ecdf"/>
  <circle cx="104" cy="122" r="3.5" fill="#1f2e1d"/>
  <circle cx="152" cy="122" r="3.5" fill="#1f2e1d"/>
  <path d="M111 188c5 6 12 9 17 9s12-3 17-9" fill="none" stroke="#2f4a32" stroke-width="6" stroke-linecap="round"/>
</svg>
